<svg width="21" height="17" viewBox="0 0 21 17" fill="none" xmlns="http://www.w3.org/2000/svg">
<path id="icon" d="M18.4441 4.42639C18.4568 4.60404 18.4568 4.78174 18.4568 4.95939C18.4568 10.3781 14.3325 16.6218 6.79441 16.6218C4.47207 16.6218 2.31473 15.9492 0.5 14.7817C0.829961 14.8198 1.14719 14.8325 1.48984 14.8325C3.40605 14.8325 5.17004 14.1853 6.57867 13.0812C4.77664 13.0431 3.26648 11.8629 2.74617 10.2386C3 10.2766 3.25379 10.302 3.52031 10.302C3.88832 10.302 4.25637 10.2512 4.59898 10.1624C2.72082 9.7817 1.31215 8.13197 1.31215 6.13959V6.08885C1.85781 6.39342 2.49238 6.58377 3.16492 6.60912C2.06086 5.87307 1.33754 4.61674 1.33754 3.19541C1.33754 2.434 1.54055 1.73603 1.8959 1.12689C3.91367 3.6142 6.94668 5.23853 10.3477 5.41623C10.2842 5.11166 10.2461 4.79443 10.2461 4.47717C10.2461 2.21826 12.0736 0.378183 14.3451 0.378183C15.5253 0.378183 16.5913 0.873105 17.34 1.6726C18.2664 1.49494 19.1547 1.15228 19.9416 0.682754C19.637 1.63455 18.9898 2.43404 18.1395 2.94162C18.9644 2.85283 19.7639 2.62436 20.4999 2.30713C19.9416 3.11928 19.2436 3.8426 18.4441 4.42639Z" fill="white"/>
</svg>
