<svg width="50" height="40" viewBox="0 0 50 40" fill="none" xmlns="http://www.w3.org/2000/svg">
<path id="Vector" d="M10.8486 39.1351C8.40149 39.1353 6.02665 38.3053 4.11242 36.7808C2.19819 35.2562 0.857838 33.1274 0.310508 30.7422C-0.236821 28.3571 0.041234 25.8568 1.09926 23.6502C2.15729 21.4436 3.93269 19.6612 6.13512 18.5945C15.4449 14.107 24.3468 8.81857 32.7405 2.78904C35.07 1.23232 37.9128 0.640775 40.6699 1.13906C43.427 1.63735 45.8829 3.18654 47.5202 5.46016C49.1574 7.73377 49.8479 10.5542 49.4464 13.327C49.0448 16.0999 47.5825 18.6085 45.3675 20.3242C35.9568 27.0739 25.9811 32.9986 15.5513 38.0324C14.087 38.7499 12.4793 39.1269 10.8486 39.1351Z" fill="#EAEAEA"/>
</svg>
